<svg xmlns="http://www.w3.org/2000/svg" viewBox="0 0 1200 630" width="1200" height="630">
  <defs>
    <linearGradient id="bg-26" x1="0" y1="0" x2="1" y2="1">
      <stop offset="0%" stop-color="#0a0a0f"/>
      <stop offset="50%" stop-color="#0e0e16"/>
      <stop offset="100%" stop-color="#12121a"/>
    </linearGradient>
    <radialGradient id="glow" cx="50%" cy="50%" r="50%">
      <stop offset="0%" stop-color="#8b5cf6" stop-opacity="0.4"/>
      <stop offset="100%" stop-color="#8b5cf6" stop-opacity="0"/>
    </radialGradient>
    <linearGradient id="accent-line-26" x1="0" y1="0" x2="1" y2="0">
      <stop offset="0%" stop-color="#8b5cf6" stop-opacity="0.8"/>
      <stop offset="100%" stop-color="#8b5cf6" stop-opacity="0"/>
    </linearGradient>
  </defs>

  <!-- Background -->
  <rect width="1200" height="630" fill="url(#bg-26)"/>

  <!-- Subtle grid overlay -->
  <g opacity="0.02">
    <pattern id="grid-26" width="40" height="40" patternUnits="userSpaceOnUse">
      <path d="M 40 0 L 0 0 0 40" fill="none" stroke="#ffffff" stroke-width="0.5"/>
    </pattern>
    <rect width="1200" height="630" fill="url(#grid-26)"/>
  </g>

  <!-- Geometric decorations -->
  <circle cx="430" cy="102" r="228" fill="url(#glow)" opacity="0.08"/>
    <circle cx="974" cy="308" r="162" fill="url(#glow)" opacity="0.05"/>
    <path d="M 800 100 Q 900 70 1000 100 Q 1100 130 1200 100" fill="none" stroke="#8b5cf6" stroke-width="1" opacity="0.05"/>
    <path d="M 800 220 Q 900 190 1000 220 Q 1100 250 1200 220" fill="none" stroke="#8b5cf6" stroke-width="1" opacity="0.05"/>
    <path d="M 800 340 Q 900 310 1000 340 Q 1100 370 1200 340" fill="none" stroke="#8b5cf6" stroke-width="1" opacity="0.05"/>
    <path d="M 800 460 Q 900 430 1000 460 Q 1100 490 1200 460" fill="none" stroke="#8b5cf6" stroke-width="1" opacity="0.05"/>
    <line x1="80" y1="578" x2="438" y2="578" stroke="#8b5cf6" stroke-width="2" opacity="0.3"/>
    <circle cx="80" cy="563" r="2" fill="#8b5cf6" opacity="0.4"/>
    <circle cx="88" cy="563" r="2" fill="#8b5cf6" opacity="0.4"/>
    <circle cx="96" cy="563" r="2" fill="#8b5cf6" opacity="0.4"/>

  <!-- Category icon -->
  <g transform="translate(970, 70) scale(0.8)" opacity="0.15">
        <circle cx="50" cy="30" r="8" fill="#8b5cf6"/>
        <circle cx="25" cy="60" r="8" fill="#8b5cf6"/>
        <circle cx="75" cy="60" r="8" fill="#8b5cf6"/>
        <circle cx="35" cy="90" r="8" fill="#8b5cf6"/>
        <circle cx="65" cy="90" r="8" fill="#8b5cf6"/>
        <line x1="50" y1="30" x2="25" y2="60" stroke="#8b5cf6" stroke-width="2"/>
        <line x1="50" y1="30" x2="75" y2="60" stroke="#8b5cf6" stroke-width="2"/>
        <line x1="25" y1="60" x2="35" y2="90" stroke="#8b5cf6" stroke-width="2"/>
        <line x1="75" y1="60" x2="65" y2="90" stroke="#8b5cf6" stroke-width="2"/>
        <line x1="25" y1="60" x2="75" y2="60" stroke="#8b5cf6" stroke-width="2"/>
        <line x1="35" y1="90" x2="65" y2="90" stroke="#8b5cf6" stroke-width="2"/>
      </g>

  <!-- Top accent line -->
  <rect x="80" y="0" width="3" height="630" fill="#8b5cf6" opacity="0.1"/>
  <rect x="0" y="0" width="1200" height="3" fill="url(#accent-line-26)"/>

  <!-- Category badge -->
  <rect x="80" y="190" width="52" height="30" rx="15" fill="#8b5cf6" opacity="0.15"/>
  <text x="94" y="211" fill="#8b5cf6" font-family="'Inter', 'Segoe UI', system-ui, -apple-system, sans-serif" font-size="13" font-weight="600" letter-spacing="1.5">AI</text>

  <!-- Title -->
  <text x="80" y="260" fill="#ffffff" font-family="'Inter', 'Segoe UI', system-ui, -apple-system, sans-serif" font-size="40" font-weight="700" letter-spacing="-0.5">AI Ethics: Bias, Fairness, and</text>
    <text x="80" y="312" fill="#ffffff" font-family="'Inter', 'Segoe UI', system-ui, -apple-system, sans-serif" font-size="40" font-weight="700" letter-spacing="-0.5">Responsibility</text>

  <!-- Bottom separator -->
  <line x1="80" y1="520" x2="1120" y2="520" stroke="#ffffff" stroke-width="0.5" opacity="0.07"/>

  <!-- Watermark -->
  <text x="1120" y="590" fill="#a0a8b4" font-family="'Inter', 'Segoe UI', system-ui, -apple-system, sans-serif" font-size="14" font-weight="400" text-anchor="end" opacity="0.5">manoga.digital</text>

  <!-- Bottom left domain accent -->
  <circle cx="80" cy="590" r="4" fill="#8b5cf6" opacity="0.4"/>
  <text x="92" y="594" fill="#a0a8b4" font-family="'Inter', 'Segoe UI', system-ui, -apple-system, sans-serif" font-size="12" opacity="0.35">manoga.digital / ai</text>
</svg>