<svg xmlns="http://www.w3.org/2000/svg" viewBox="0 0 1200 630" width="1200" height="630">
  <defs>
    <linearGradient id="bg-38" x1="0" y1="0" x2="1" y2="1">
      <stop offset="0%" stop-color="#0a0a0f"/>
      <stop offset="50%" stop-color="#0e0e16"/>
      <stop offset="100%" stop-color="#12121a"/>
    </linearGradient>
    <radialGradient id="glow" cx="50%" cy="50%" r="50%">
      <stop offset="0%" stop-color="#8b5cf6" stop-opacity="0.4"/>
      <stop offset="100%" stop-color="#8b5cf6" stop-opacity="0"/>
    </radialGradient>
    <linearGradient id="accent-line-38" x1="0" y1="0" x2="1" y2="0">
      <stop offset="0%" stop-color="#8b5cf6" stop-opacity="0.8"/>
      <stop offset="100%" stop-color="#8b5cf6" stop-opacity="0"/>
    </linearGradient>
  </defs>

  <!-- Background -->
  <rect width="1200" height="630" fill="url(#bg-38)"/>

  <!-- Subtle grid overlay -->
  <g opacity="0.02">
    <pattern id="grid-38" width="40" height="40" patternUnits="userSpaceOnUse">
      <path d="M 40 0 L 0 0 0 40" fill="none" stroke="#ffffff" stroke-width="0.5"/>
    </pattern>
    <rect width="1200" height="630" fill="url(#grid-38)"/>
  </g>

  <!-- Geometric decorations -->
  <circle cx="290" cy="146" r="184" fill="url(#glow)" opacity="0.08"/>
    <circle cx="1022" cy="324" r="166" fill="url(#glow)" opacity="0.05"/>
    <line x1="1060.0" y1="180.0" x2="1120.0" y2="180.0" stroke="#8b5cf6" stroke-width="0.8" opacity="0.05"/>
    <line x1="1048.3" y1="208.3" x2="1090.7" y2="250.7" stroke="#8b5cf6" stroke-width="0.8" opacity="0.05"/>
    <line x1="1020.0" y1="220.0" x2="1020.0" y2="280.0" stroke="#8b5cf6" stroke-width="0.8" opacity="0.05"/>
    <line x1="991.7" y1="208.3" x2="949.3" y2="250.7" stroke="#8b5cf6" stroke-width="0.8" opacity="0.05"/>
    <line x1="980.0" y1="180.0" x2="920.0" y2="180.0" stroke="#8b5cf6" stroke-width="0.8" opacity="0.05"/>
    <line x1="991.7" y1="151.7" x2="949.3" y2="109.3" stroke="#8b5cf6" stroke-width="0.8" opacity="0.05"/>
    <line x1="1020.0" y1="140.0" x2="1020.0" y2="80.0" stroke="#8b5cf6" stroke-width="0.8" opacity="0.05"/>
    <line x1="1048.3" y1="151.7" x2="1090.7" y2="109.3" stroke="#8b5cf6" stroke-width="0.8" opacity="0.05"/>
    <line x1="80" y1="574" x2="314" y2="574" stroke="#8b5cf6" stroke-width="2" opacity="0.3"/>
    <circle cx="80" cy="559" r="2" fill="#8b5cf6" opacity="0.4"/>
    <circle cx="88" cy="559" r="2" fill="#8b5cf6" opacity="0.4"/>
    <circle cx="96" cy="559" r="2" fill="#8b5cf6" opacity="0.4"/>

  <!-- Category icon -->
  <g transform="translate(970, 70) scale(0.8)" opacity="0.15">
        <circle cx="50" cy="30" r="8" fill="#8b5cf6"/>
        <circle cx="25" cy="60" r="8" fill="#8b5cf6"/>
        <circle cx="75" cy="60" r="8" fill="#8b5cf6"/>
        <circle cx="35" cy="90" r="8" fill="#8b5cf6"/>
        <circle cx="65" cy="90" r="8" fill="#8b5cf6"/>
        <line x1="50" y1="30" x2="25" y2="60" stroke="#8b5cf6" stroke-width="2"/>
        <line x1="50" y1="30" x2="75" y2="60" stroke="#8b5cf6" stroke-width="2"/>
        <line x1="25" y1="60" x2="35" y2="90" stroke="#8b5cf6" stroke-width="2"/>
        <line x1="75" y1="60" x2="65" y2="90" stroke="#8b5cf6" stroke-width="2"/>
        <line x1="25" y1="60" x2="75" y2="60" stroke="#8b5cf6" stroke-width="2"/>
        <line x1="35" y1="90" x2="65" y2="90" stroke="#8b5cf6" stroke-width="2"/>
      </g>

  <!-- Top accent line -->
  <rect x="80" y="0" width="3" height="630" fill="#8b5cf6" opacity="0.1"/>
  <rect x="0" y="0" width="1200" height="3" fill="url(#accent-line-38)"/>

  <!-- Category badge -->
  <rect x="80" y="190" width="52" height="30" rx="15" fill="#8b5cf6" opacity="0.15"/>
  <text x="94" y="211" fill="#8b5cf6" font-family="'Inter', 'Segoe UI', system-ui, -apple-system, sans-serif" font-size="13" font-weight="600" letter-spacing="1.5">AI</text>

  <!-- Title -->
  <text x="80" y="260" fill="#ffffff" font-family="'Inter', 'Segoe UI', system-ui, -apple-system, sans-serif" font-size="40" font-weight="700" letter-spacing="-0.5">Open Source vs Proprietary AI</text>
    <text x="80" y="312" fill="#ffffff" font-family="'Inter', 'Segoe UI', system-ui, -apple-system, sans-serif" font-size="40" font-weight="700" letter-spacing="-0.5">Models</text>

  <!-- Bottom separator -->
  <line x1="80" y1="520" x2="1120" y2="520" stroke="#ffffff" stroke-width="0.5" opacity="0.07"/>

  <!-- Watermark -->
  <text x="1120" y="590" fill="#a0a8b4" font-family="'Inter', 'Segoe UI', system-ui, -apple-system, sans-serif" font-size="14" font-weight="400" text-anchor="end" opacity="0.5">manoga.digital</text>

  <!-- Bottom left domain accent -->
  <circle cx="80" cy="590" r="4" fill="#8b5cf6" opacity="0.4"/>
  <text x="92" y="594" fill="#a0a8b4" font-family="'Inter', 'Segoe UI', system-ui, -apple-system, sans-serif" font-size="12" opacity="0.35">manoga.digital / ai</text>
</svg>