<svg xmlns="http://www.w3.org/2000/svg" viewBox="0 0 1200 630" width="1200" height="630">
  <defs>
    <linearGradient id="bg-31" x1="0" y1="0" x2="1" y2="1">
      <stop offset="0%" stop-color="#0a0a0f"/>
      <stop offset="50%" stop-color="#0e0e16"/>
      <stop offset="100%" stop-color="#12121a"/>
    </linearGradient>
    <radialGradient id="glow" cx="50%" cy="50%" r="50%">
      <stop offset="0%" stop-color="#8b5cf6" stop-opacity="0.4"/>
      <stop offset="100%" stop-color="#8b5cf6" stop-opacity="0"/>
    </radialGradient>
    <linearGradient id="accent-line-31" x1="0" y1="0" x2="1" y2="0">
      <stop offset="0%" stop-color="#8b5cf6" stop-opacity="0.8"/>
      <stop offset="100%" stop-color="#8b5cf6" stop-opacity="0"/>
    </linearGradient>
  </defs>

  <!-- Background -->
  <rect width="1200" height="630" fill="url(#bg-31)"/>

  <!-- Subtle grid overlay -->
  <g opacity="0.02">
    <pattern id="grid-31" width="40" height="40" patternUnits="userSpaceOnUse">
      <path d="M 40 0 L 0 0 0 40" fill="none" stroke="#ffffff" stroke-width="0.5"/>
    </pattern>
    <rect width="1200" height="630" fill="url(#grid-31)"/>
  </g>

  <!-- Geometric decorations -->
  <circle cx="305" cy="87" r="193" fill="url(#glow)" opacity="0.08"/>
    <circle cx="819" cy="523" r="197" fill="url(#glow)" opacity="0.05"/>
    <circle cx="850" cy="100" r="2" fill="#8b5cf6" opacity="0.06"/>
    <circle cx="850" cy="150" r="2" fill="#8b5cf6" opacity="0.06"/>
    <circle cx="850" cy="200" r="2" fill="#8b5cf6" opacity="0.06"/>
    <circle cx="850" cy="250" r="2" fill="#8b5cf6" opacity="0.06"/>
    <circle cx="890" cy="100" r="2" fill="#8b5cf6" opacity="0.06"/>
    <circle cx="890" cy="150" r="2" fill="#8b5cf6" opacity="0.06"/>
    <circle cx="890" cy="200" r="2" fill="#8b5cf6" opacity="0.06"/>
    <circle cx="890" cy="250" r="2" fill="#8b5cf6" opacity="0.06"/>
    <circle cx="930" cy="100" r="2" fill="#8b5cf6" opacity="0.06"/>
    <circle cx="930" cy="150" r="2" fill="#8b5cf6" opacity="0.06"/>
    <circle cx="930" cy="200" r="2" fill="#8b5cf6" opacity="0.06"/>
    <circle cx="930" cy="250" r="2" fill="#8b5cf6" opacity="0.06"/>
    <circle cx="970" cy="100" r="2" fill="#8b5cf6" opacity="0.06"/>
    <circle cx="970" cy="150" r="2" fill="#8b5cf6" opacity="0.06"/>
    <circle cx="970" cy="200" r="2" fill="#8b5cf6" opacity="0.06"/>
    <circle cx="970" cy="250" r="2" fill="#8b5cf6" opacity="0.06"/>
    <circle cx="1010" cy="100" r="2" fill="#8b5cf6" opacity="0.06"/>
    <circle cx="1010" cy="150" r="2" fill="#8b5cf6" opacity="0.06"/>
    <circle cx="1010" cy="200" r="2" fill="#8b5cf6" opacity="0.06"/>
    <circle cx="1010" cy="250" r="2" fill="#8b5cf6" opacity="0.06"/>
    <circle cx="1050" cy="100" r="2" fill="#8b5cf6" opacity="0.06"/>
    <circle cx="1050" cy="150" r="2" fill="#8b5cf6" opacity="0.06"/>
    <circle cx="1050" cy="200" r="2" fill="#8b5cf6" opacity="0.06"/>
    <circle cx="1050" cy="250" r="2" fill="#8b5cf6" opacity="0.06"/>
    <circle cx="1090" cy="100" r="2" fill="#8b5cf6" opacity="0.06"/>
    <circle cx="1090" cy="150" r="2" fill="#8b5cf6" opacity="0.06"/>
    <circle cx="1090" cy="200" r="2" fill="#8b5cf6" opacity="0.06"/>
    <circle cx="1090" cy="250" r="2" fill="#8b5cf6" opacity="0.06"/>
    <circle cx="1130" cy="100" r="2" fill="#8b5cf6" opacity="0.06"/>
    <circle cx="1130" cy="150" r="2" fill="#8b5cf6" opacity="0.06"/>
    <circle cx="1130" cy="200" r="2" fill="#8b5cf6" opacity="0.06"/>
    <circle cx="1130" cy="250" r="2" fill="#8b5cf6" opacity="0.06"/>
    <line x1="80" y1="573" x2="353" y2="573" stroke="#8b5cf6" stroke-width="2" opacity="0.3"/>
    <circle cx="80" cy="558" r="2" fill="#8b5cf6" opacity="0.4"/>
    <circle cx="88" cy="558" r="2" fill="#8b5cf6" opacity="0.4"/>
    <circle cx="96" cy="558" r="2" fill="#8b5cf6" opacity="0.4"/>

  <!-- Category icon -->
  <g transform="translate(970, 70) scale(0.8)" opacity="0.15">
        <circle cx="50" cy="30" r="8" fill="#8b5cf6"/>
        <circle cx="25" cy="60" r="8" fill="#8b5cf6"/>
        <circle cx="75" cy="60" r="8" fill="#8b5cf6"/>
        <circle cx="35" cy="90" r="8" fill="#8b5cf6"/>
        <circle cx="65" cy="90" r="8" fill="#8b5cf6"/>
        <line x1="50" y1="30" x2="25" y2="60" stroke="#8b5cf6" stroke-width="2"/>
        <line x1="50" y1="30" x2="75" y2="60" stroke="#8b5cf6" stroke-width="2"/>
        <line x1="25" y1="60" x2="35" y2="90" stroke="#8b5cf6" stroke-width="2"/>
        <line x1="75" y1="60" x2="65" y2="90" stroke="#8b5cf6" stroke-width="2"/>
        <line x1="25" y1="60" x2="75" y2="60" stroke="#8b5cf6" stroke-width="2"/>
        <line x1="35" y1="90" x2="65" y2="90" stroke="#8b5cf6" stroke-width="2"/>
      </g>

  <!-- Top accent line -->
  <rect x="80" y="0" width="3" height="630" fill="#8b5cf6" opacity="0.1"/>
  <rect x="0" y="0" width="1200" height="3" fill="url(#accent-line-31)"/>

  <!-- Category badge -->
  <rect x="80" y="190" width="52" height="30" rx="15" fill="#8b5cf6" opacity="0.15"/>
  <text x="94" y="211" fill="#8b5cf6" font-family="'Inter', 'Segoe UI', system-ui, -apple-system, sans-serif" font-size="13" font-weight="600" letter-spacing="1.5">AI</text>

  <!-- Title -->
  <text x="80" y="260" fill="#ffffff" font-family="'Inter', 'Segoe UI', system-ui, -apple-system, sans-serif" font-size="40" font-weight="700" letter-spacing="-0.5">The Rise of Generative AI</text>

  <!-- Bottom separator -->
  <line x1="80" y1="520" x2="1120" y2="520" stroke="#ffffff" stroke-width="0.5" opacity="0.07"/>

  <!-- Watermark -->
  <text x="1120" y="590" fill="#a0a8b4" font-family="'Inter', 'Segoe UI', system-ui, -apple-system, sans-serif" font-size="14" font-weight="400" text-anchor="end" opacity="0.5">manoga.digital</text>

  <!-- Bottom left domain accent -->
  <circle cx="80" cy="590" r="4" fill="#8b5cf6" opacity="0.4"/>
  <text x="92" y="594" fill="#a0a8b4" font-family="'Inter', 'Segoe UI', system-ui, -apple-system, sans-serif" font-size="12" opacity="0.35">manoga.digital / ai</text>
</svg>